<?xml version="1.0" encoding="UTF-8"?>
<svg xmlns="http://www.w3.org/2000/svg" version="1.1" viewBox="0 0 360 360">
  <defs>
    <style>
      .cls-1 {
        fill: #1d1d1b;
      }
    </style>
  </defs>
  <!-- Generator: Adobe Illustrator 28.6.0, SVG Export Plug-In . SVG Version: 1.2.0 Build 709)  -->
  <g>
    <g id="Calque_1">
      <g>
        <path class="cls-1" d="M61.52,252.18c.54.42.92,1.09,1.16,2.01.18.71.27,1.49.27,2.32,0,2.26-.15,4.45-.45,6.56-.8,5.89-2.17,12.15-4.11,18.75-2.29,7.83-4.82,14.5-7.59,20-3.51,6.94-6.95,11.58-10.31,13.93-.24.24-.55.36-.94.36s-.74-.17-1.07-.51c-.33-.34-.49-.72-.49-1.14,0-.54.22-.97.67-1.29,2.98-2.08,6.07-6.31,9.29-12.68,2.71-5.36,5.15-11.89,7.32-19.6,2.17-7.71,3.54-13.77,4.11-18.17.33-2.26.49-4.3.49-6.12,0-.63-.06-1.18-.18-1.65,0-.06-.03-.15-.09-.27-.63-.39-1.76-.49-3.39-.31-1.01.09-2.99.64-5.94,1.65-1.43.48-3.35,1.34-5.76,2.59l-1.56.89c.21.09.39.29.56.6.16.31.25.6.25.87,0,.36-.13.7-.4,1.03-.27.33-.58.51-.94.54l-.22.04c-.15.03-.39.04-.71.02-.33-.01-.65-.07-.98-.16-.86-.15-1.44-.64-1.74-1.47-.27-.74-.06-1.59.63-2.55.48-.56.97-1,1.47-1.29.18-.12.51-.34,1-.67.49-.33.89-.56,1.18-.71,1.93-.98,3.94-1.86,6.03-2.63,2.44-.89,4.7-1.47,6.79-1.74,1.76-.15,2.75-.21,2.99-.18,1.07.09,1.96.42,2.68.98Z"/>
        <path class="cls-1" d="M81.97,289.78c.45.36.79.97,1.03,1.83.3,1.1.3,2.87,0,5.31-.18,3.24.3,5.55,1.43,6.92,1.22,1.49,3.42,2.23,6.61,2.23,7.5-.09,20.82-4.91,39.96-14.47.12-.06.36-.09.71-.09.39,0,.74.16,1.07.49.33.33.49.69.49,1.07,0,.27-.1.54-.29.83-.19.28-.41.47-.65.56-10.12,5.03-18.49,8.72-25.09,11.07-6.61,2.35-11.98,3.56-16.12,3.62-4.2,0-7.25-1.13-9.15-3.39-1.61-1.9-2.31-4.91-2.1-9.02v-.09c.21-1.73.24-3.14.09-4.24-.21.06-.61.34-1.21.85-.69.63-1.59,1.59-2.72,2.9-2.62,3.16-5.4,7.16-8.35,12.01-.36.48-.77.71-1.25.71-.42,0-.8-.16-1.14-.49-.34-.33-.51-.68-.51-1.07.12-8.22.12-12.9,0-14.07v-.18c0-.39.16-.74.49-1.07s.68-.49,1.07-.49c.42,0,.77.13,1.07.4.3.27.46.6.49.98.12,1.16.18,4.14.18,8.93,2.14-3.27,3.97-5.83,5.49-7.68.98-1.25,2.01-2.34,3.08-3.26,1.28-1.1,2.38-1.68,3.3-1.74.83,0,1.5.21,2.01.63Z"/>
        <path class="cls-1" d="M138.19,285.09c.21.03.36.04.45.04,1.04.21,1.8.45,2.28.71.8.48,1.29,1.09,1.47,1.83.15.69.06,1.36-.27,2.01-.24.48-.64.94-1.21,1.38-1.34,1.22-3.11,2.35-5.31,3.39-.24.12-.48.18-.71.18-.69,0-1.15-.28-1.38-.85-.48,1.64-.74,2.83-.8,3.57-.3,2.83.16,5.12,1.38,6.88,1.31,1.88,3.5,2.81,6.56,2.81,4.85-.09,10.15-.94,15.9-2.57,5.74-1.62,10.93-3.55,15.56-5.78s8.6-4.54,11.9-6.92c.18-.18.48-.27.89-.27s.78.16,1.09.49c.31.33.47.69.47,1.07,0,.51-.21.92-.63,1.25-3.54,2.53-7.67,4.94-12.37,7.23-4.7,2.29-10.04,4.28-16.01,5.96-5.97,1.68-11.54,2.57-16.72,2.66-4.14.09-7.25-1.31-9.33-4.2-1.55-2.14-2.16-5.11-1.83-8.89.27-3.24,1.22-6.06,2.86-8.44.77-1.22,1.65-2.13,2.63-2.72.95-.6,1.85-.89,2.68-.89.09,0,.24.02.45.04ZM132.45,272.14c.31.24.48.51.51.8v-.04l.31.45c.21.33.37.57.49.71.48.69,1.09,1.44,1.83,2.28.92,1.04,1.82,1.95,2.68,2.72.24.24.36.61.36,1.12,0,.42-.16.8-.49,1.14-.33.34-.69.51-1.07.51-.36,0-.71-.18-1.07-.54l-2.77-2.95c-1.01-1.13-1.68-1.92-2.01-2.37-.71-.95-1.15-1.71-1.29-2.28,0-.03-.01-.1-.04-.2-.03-.1-.04-.17-.04-.2,0-.39.17-.74.51-1.05.34-.31.72-.47,1.14-.47.33,0,.65.12.96.36ZM136.8,288.57c-.71.48-1.29,1.09-1.74,1.83-.18.27-.39.64-.63,1.12,2.05-1.07,3.51-1.98,4.38-2.72.03-.03.07-.08.13-.16.06-.07.1-.13.13-.16-.15-.09-.48-.18-.98-.27-.03,0-.07-.01-.13-.04-.06-.03-.1-.04-.13-.04-.3,0-.64.15-1.03.45Z"/>
        <path class="cls-1" d="M322.01,176.67c0,54.49-33.33,102.99-82.79,123.04-4.86,1.98-9.88,3.69-15.04,5.09-.18.05-.38.11-.56.15-.08.02-.14.03-.21.05h-.03c-4.92,1.19-10.35,2.19-16.28,2.99-5.18.69-10.76,1.17-16.75,1.43-2.56.12-3.99.18-4.28.18-.06,0-.15-.02-.24-.05-.11-.03-.18-.05-.21-.05h-.44l-.4-.09c-.12-.06-.43-.56-.9-1.51l.18-.32c.12-.24.24-.47.4-.72.15-.23.26-.35.32-.35h.3c.12,0,.21-.03.27-.09h.44c1.19-.03,2.32-.21,3.37-.53,1.07-.34,1.74-.64,2.04-.94.23-.2.32-.38.26-.53-.18-.53-.73-1.17-1.65-1.92-3.43-1.97-5.5-4.04-6.2-6.25-.72-1.97-.4-3.92.98-5.85.93-1.31,2.24-2.42,3.93-3.35.18-.11.46-.29.82-.5.37-.23.62-.37.73-.43.06-.03.12-.06.18-.11.06-.05.11-.09.15-.12.05-.03.09-.05.12-.05.17-.17.49-.26.93-.26h.09c.41,0,.78.15,1.1.47s.47.67.47,1.08-.12.75-.37.99c-.18.23-.34.35-.49.35-.03,0-.08.02-.14.05-.06.03-.11.05-.14.05-.11.12-.26.23-.44.32-.12.06-.32.18-.62.37-.29.2-.55.34-.76.43-1.34.75-2.33,1.6-2.99,2.55-.75,1.08-.98,2.06-.67,2.96.44,1.39,2.13,2.94,5.04,4.63l.18.18c1.63,1.34,2.56,2.56,2.76,3.66.18.84.08,1.65-.3,2.41,3.72-.17,7.9-.58,12.54-1.2,5.29-.72,10.41-1.68,15.36-2.88,2.38-.58,4.71-1.2,7.01-1.89,4.82-1.43,9.01-3.15,12.57-5.14,2.16-.96,4.31-1.97,6.4-3.05,42.55-21.75,70.51-65.96,70.51-115.24,0-71.33-58.04-129.37-129.37-129.37S59.86,105.34,59.86,176.67c0,14.13,2.26,28.01,6.72,41.29.3.9-.18,1.86-1.07,2.16-.91.3-1.87-.18-2.18-1.08-4.59-13.61-6.9-27.88-6.9-42.37,0-73.22,59.56-132.8,132.78-132.8s132.8,59.58,132.8,132.8Z"/>
        <path class="cls-1" d="M223.4,305c.26-.06.52-.12.78-.2-.18.05-.38.11-.56.15-.08.03-.14.03-.21.05Z"/>
      </g>
    </g>
  </g>
</svg>